<svg width="32" height="32" viewBox="0 0 32 32" fill="none" xmlns="http://www.w3.org/2000/svg">
<rect width="32" height="32" rx="16" fill="#59BD5A"/>
<path d="M16.1212 4.63646C16.2123 4.67402 16.2951 4.72916 16.3648 4.79871C16.4346 4.86827 16.4899 4.95089 16.5278 5.04185C16.5656 5.13281 16.5851 5.23032 16.5852 5.32883C16.5854 5.42734 16.5661 5.5249 16.5285 5.61596C16.1572 6.51596 15.7282 8.54471 16.2217 10.7662C16.7568 10.692 17.3016 10.7308 17.8207 10.8802C18.0946 10.4377 18.4559 10.0557 18.8825 9.7576C19.3092 9.45954 19.7921 9.2517 20.3019 9.1468C20.8116 9.04189 21.3374 9.04214 21.8471 9.14752C22.3567 9.2529 22.8395 9.4612 23.2659 9.75966C23.6922 10.0581 24.0531 10.4405 24.3266 10.8833C24.6 11.3261 24.7802 11.82 24.8561 12.3349C24.932 12.8498 24.902 13.3747 24.7679 13.8776C24.6339 14.3805 24.3986 14.8507 24.0765 15.2595C24.6098 15.9333 24.8995 16.7678 24.8985 17.6272C24.899 18.1779 24.7803 18.7221 24.5506 19.2226C24.321 19.7231 23.9858 20.168 23.568 20.5267C23.8209 20.988 23.9759 21.4965 24.0234 22.0204C24.0708 22.5443 24.0096 23.0723 23.8437 23.5715C23.6778 24.0707 23.4106 24.5303 23.059 24.9216C22.7073 25.3128 22.2788 25.6273 21.8 25.8454C21.3213 26.0635 20.8027 26.1804 20.2768 26.189C19.7508 26.1975 19.2287 26.0975 18.7431 25.895C18.2576 25.6926 17.819 25.3922 17.4549 25.0126C17.0907 24.6329 16.8088 24.1822 16.6267 23.6887C15.7104 23.7309 14.8093 23.4424 14.0879 22.8757C13.3665 22.3091 12.8728 21.502 12.6967 20.6017C12.1597 20.6212 11.6245 20.5273 11.1262 20.3261C10.6278 20.1249 10.1775 19.8209 9.80449 19.434C9.43151 19.0471 9.14428 18.5859 8.96152 18.0805C8.77876 17.5751 8.70458 17.0368 8.74381 16.5008C8.78304 15.9648 8.93481 15.4431 9.18921 14.9697C9.44361 14.4963 9.79494 14.0818 10.2203 13.7533C10.6456 13.4248 11.1354 13.1897 11.6578 13.0632C12.1801 12.9367 12.7232 12.9217 13.2517 13.0192C13.3972 12.687 13.5877 12.3802 13.8165 12.1065L10.974 13.1505C10.4345 13.3486 9.86118 13.4385 9.28691 13.415C8.71263 13.3915 8.1486 13.2552 7.62702 13.0137C7.10545 12.7723 6.63655 12.4304 6.24709 12.0077C5.85764 11.585 5.55527 11.0898 5.35724 10.5502L9.46499 9.04195C10.4158 8.693 11.4581 8.68451 12.4145 9.01792C13.3708 9.35134 14.182 10.006 14.7097 10.8705C14.211 8.37521 14.6962 6.12296 15.1417 5.04371C15.1793 4.95264 15.2344 4.86987 15.304 4.80012C15.3736 4.73037 15.4562 4.675 15.5471 4.63718C15.6381 4.59937 15.7356 4.57984 15.8341 4.57971C15.9326 4.57959 16.0302 4.59887 16.1212 4.63646ZM12.9315 14.4855C12.5045 14.4164 12.0666 14.4678 11.6672 14.634C11.2678 14.8003 10.9228 15.0746 10.6708 15.4263C10.4189 15.778 10.2701 16.193 10.2412 16.6246C10.2123 17.0562 10.3045 17.4873 10.5072 17.8694C10.71 18.2515 11.0154 18.5695 11.3891 18.7875C11.7627 19.0054 12.1898 19.1148 12.6223 19.1033C13.0547 19.0918 13.4753 18.9598 13.8368 18.7222C14.1983 18.4846 14.4864 18.1508 14.6685 17.7585C14.1251 17.4051 13.6805 16.9192 13.3766 16.3466C13.0728 15.774 12.9196 15.1336 12.9315 14.4855ZM16.0635 18.315C15.6864 19.1722 15.0088 19.862 14.1585 20.2545C14.2195 20.6195 14.3668 20.9647 14.5881 21.2613C14.8093 21.558 15.0983 21.7975 15.4308 21.96C15.7633 22.1226 16.1298 22.2033 16.4998 22.1957C16.8698 22.188 17.2326 22.0921 17.5581 21.916C17.8836 21.7399 18.1624 21.4886 18.3712 21.183C18.58 20.8775 18.7129 20.5265 18.7588 20.1593C18.8046 19.792 18.7621 19.4191 18.6349 19.0716C18.5076 18.7241 18.2992 18.412 18.027 18.1612C17.3972 18.3832 16.7202 18.4363 16.0635 18.315ZM19.344 17.3677C19.9323 18.0466 20.2617 18.9115 20.274 19.8097C20.7447 19.9825 21.2587 19.9984 21.7392 19.8551C22.2197 19.7118 22.641 19.4169 22.9402 19.0144C23.2393 18.612 23.4003 18.1237 23.3991 17.6222C23.3979 17.1208 23.2346 16.6332 22.9335 16.2322C22.4918 16.4773 22.006 16.6329 21.5041 16.6899C21.0022 16.7469 20.4939 16.7043 20.0085 16.5645C19.8245 16.8612 19.601 17.1314 19.344 17.3677ZM20.5327 15.1515C20.9447 15.2501 21.3757 15.2343 21.7793 15.1058C22.1829 14.9773 22.5438 14.7409 22.8228 14.4222C23.1018 14.1035 23.2884 13.7146 23.3625 13.2975C23.4366 12.8805 23.3953 12.4511 23.243 12.0558C23.0908 11.6606 22.8335 11.3144 22.4988 11.0548C22.1641 10.7951 21.7649 10.6318 21.3442 10.5826C20.9235 10.5334 20.4973 10.6001 20.1117 10.7755C19.7262 10.9508 19.3959 11.2282 19.1565 11.5777C19.6804 11.9993 20.0836 12.5519 20.3253 13.1795C20.5669 13.807 20.6385 14.4873 20.5327 15.1515ZM21.0742 21.4515C20.7103 21.4516 20.3481 21.3999 19.9987 21.2977C19.6394 22.1861 18.9606 22.9079 18.096 23.3212C18.2232 23.6075 18.407 23.8651 18.6363 24.0786C18.8656 24.2921 19.1356 24.457 19.4303 24.5635C19.7249 24.67 20.038 24.7158 20.3508 24.6983C20.6636 24.6808 20.9696 24.6002 21.2505 24.4614C21.5313 24.3227 21.7813 24.1286 21.9852 23.8908C22.1892 23.653 22.3431 23.3765 22.4375 23.0778C22.5319 22.779 22.565 22.4643 22.5348 22.1525C22.5045 21.8407 22.4116 21.5382 22.2615 21.2632C21.8872 21.3855 21.489 21.4515 21.0742 21.4515ZM14.4315 14.553C14.4259 14.8616 14.482 15.1683 14.5962 15.4551C14.7105 15.7419 14.8808 16.0031 15.0972 16.2234C15.3135 16.4436 15.5716 16.6186 15.8563 16.738C16.141 16.8574 16.4466 16.919 16.7554 16.919C17.0641 16.919 17.3697 16.8574 17.6545 16.738C17.9392 16.6186 18.1972 16.4436 18.4136 16.2234C18.6299 16.0031 18.8002 15.7419 18.9145 15.4551C19.0288 15.1683 19.0848 14.8616 19.0792 14.553C19.0683 13.9439 18.8187 13.3634 18.384 12.9365C17.9494 12.5096 17.3646 12.2705 16.7554 12.2705C16.1462 12.2705 15.5613 12.5096 15.1267 12.9365C14.6921 13.3634 14.4424 13.9439 14.4315 14.553Z" fill="#0F0F2C"/>
</svg>
